<svg height="512" viewBox="0 0 60 60" width="512" xmlns="http://www.w3.org/2000/svg" id="fi_4116277"><g id="Page-1" fill="none" fill-rule="evenodd"><g id="004---Website-Layout"><g id="Icons" transform="translate(1 1)"><path id="Path" d="m58 4v6h-29c-1.1032019-.0032948-1.9967052-.89679813-2-2v-2c-.0032948-1.10320187-.8967981-1.9967052-2-2h-25c0-2.209139 1.790861-4 4-4h50c2.209139 0 4 1.790861 4 4z" fill="#3f51b5"></path><path id="Path" d="m54 0h-3c2.209139 0 4 1.790861 4 4v6h3v-6c0-2.209139-1.790861-4-4-4z" fill="#283593"></path><path id="Path" d="m58 10v4h-58v-10h25c1.1032019.0032948 1.9967052.89679813 2 2v2c.0032948 1.10320187.8967981 1.9967052 2 2z" fill="#02a9f4"></path><path id="Rectangle" d="m55 10h3v4h-3z" fill="#0377bc"></path><path id="Path" d="m58 14v40c0 2.209139-1.790861 4-4 4h-50c-2.209139 0-4-1.790861-4-4v-40z" fill="#f5f5f5"></path><path id="Path" d="m55 14v40c0 2.209139-1.790861 4-4 4h3c2.209139 0 4-1.790861 4-4v-40z" fill="#cfd8dc"></path><rect id="Rectangle" fill="#9d27b0" height="36" rx="2" width="10" x="4" y="18"></rect><path id="Path" d="m12 18h-3c1.1045695 0 2 .8954305 2 2v32c0 1.1045695-.8954305 2-2 2h3c1.1045695 0 2-.8954305 2-2v-32c0-1.1045695-.8954305-2-2-2z" fill="#6a1b9a"></path><rect id="Rectangle" fill="#673ab7" height="8" rx="1" width="36" x="18" y="18"></rect><path id="Path" d="m53 18h-3c.5522847 0 1 .4477153 1 1v6c0 .5522847-.4477153 1-1 1h3c.5522847 0 1-.4477153 1-1v-6c0-.5522847-.4477153-1-1-1z" fill="#4527a0"></path><rect id="Rectangle" fill="#673ab7" height="8" rx="1" width="8" x="18" y="46"></rect><path id="Path" d="m25 46h-3c.5522847 0 1 .4477153 1 1v6c0 .5522847-.4477153 1-1 1h3c.5522847 0 1-.4477153 1-1v-6c0-.5522847-.4477153-1-1-1z" fill="#4527a0"></path></g><g id="Icons_copy" fill="#000"><path id="Shape" d="m55 0h-50c-2.76005315.00330612-4.99669388 2.23994685-5 5v50c.00330612 2.7600532 2.23994685 4.9966939 5 5h50c2.7600532-.0033061 4.9966939-2.2399468 5-5v-50c-.0033061-2.76005315-2.2399468-4.99669388-5-5zm-53 6h24c.5522847 0 1 .44771525 1 1v2c0 1.6568542 1.3431458 3 3 3h28v2h-56zm3-4h50c1.6568542 0 3 1.34314575 3 3v5h-28c-.5522847 0-1-.44771525-1-1v-2c0-1.65685425-1.3431458-3-3-3h-23.816c.42225455-1.19435087 1.54921457-1.99474861 2.816-2zm50 56h-50c-1.65685425 0-3-1.3431458-3-3v-39h56v39c0 1.6568542-1.3431458 3-3 3z" fill-rule="nonzero"></path><path id="Path" d="m17 9h-11c-.55228475 0-1 .44771525-1 1 0 .5522847.44771525 1 1 1h11c.5522847 0 1-.4477153 1-1 0-.55228475-.4477153-1-1-1z"></path><path id="Path" d="m24.707 8.293c-.3904999-.39038194-1.0235001-.39038194-1.414 0l-.293.293-.293-.293c-.3923789-.37897221-1.0160848-.37355237-1.4018186.01218142-.3857338.3857338-.3911536 1.00943969-.0121814 1.40181858l.293.293-.293.293c-.2599566.2510745-.3642126.6228779-.2726972.9725073.0915155.3496295.3645604.6226744.7141899.7141899.3496294.0915154.7214328-.0127406.9725073-.2726972l.293-.293.293.293c.3923789.3789722 1.0160848.3735524 1.4018186-.0121814s.3911536-1.0094397.0121814-1.4018186l-.293-.293.293-.293c.3903819-.39049985.3903819-1.02350015 0-1.414z"></path><circle id="Oval" cx="53" cy="6" r="1"></circle><circle id="Oval" cx="49" cy="6" r="1"></circle><circle id="Oval" cx="45" cy="6" r="1"></circle><path id="Shape" d="m13 18h-6c-1.65685425 0-3 1.3431458-3 3v32c0 1.6568542 1.34314575 3 3 3h6c1.6568542 0 3-1.3431458 3-3v-32c0-1.6568542-1.3431458-3-3-3zm1 35c0 .5522847-.4477153 1-1 1h-6c-.55228475 0-1-.4477153-1-1v-32c0-.5522847.44771525-1 1-1h6c.5522847 0 1 .4477153 1 1z" fill-rule="nonzero"></path><path id="Shape" d="m54 18h-34c-1.1045695 0-2 .8954305-2 2v6c0 1.1045695.8954305 2 2 2h34c1.1045695 0 2-.8954305 2-2v-6c0-1.1045695-.8954305-2-2-2zm-34 8v-6h34v6z" fill-rule="nonzero"></path><path id="Path" d="m55 30h-36c-.5522847 0-1 .4477153-1 1s.4477153 1 1 1h36c.5522847 0 1-.4477153 1-1s-.4477153-1-1-1z"></path><path id="Path" d="m55 34h-10c-.5522847 0-1 .4477153-1 1s.4477153 1 1 1h10c.5522847 0 1-.4477153 1-1s-.4477153-1-1-1z"></path><path id="Path" d="m19 36h22c.5522847 0 1-.4477153 1-1s-.4477153-1-1-1h-22c-.5522847 0-1 .4477153-1 1s.4477153 1 1 1z"></path><path id="Path" d="m55 38h-27c-.5522847 0-1 .4477153-1 1s.4477153 1 1 1h27c.5522847 0 1-.4477153 1-1s-.4477153-1-1-1z"></path><path id="Path" d="m19 40h5c.5522847 0 1-.4477153 1-1s-.4477153-1-1-1h-5c-.5522847 0-1 .4477153-1 1s.4477153 1 1 1z"></path><path id="Path" d="m19 44h26c.5522847 0 1-.4477153 1-1s-.4477153-1-1-1h-26c-.5522847 0-1 .4477153-1 1s.4477153 1 1 1z"></path><path id="Path" d="m55 46h-10c-.5522847 0-1 .4477153-1 1s.4477153 1 1 1h10c.5522847 0 1-.4477153 1-1s-.4477153-1-1-1z"></path><path id="Path" d="m31 46c-.5522847 0-1 .4477153-1 1s.4477153 1 1 1h10c.5522847 0 1-.4477153 1-1s-.4477153-1-1-1z"></path><path id="Path" d="m55 50h-24c-.5522847 0-1 .4477153-1 1s.4477153 1 1 1h24c.5522847 0 1-.4477153 1-1s-.4477153-1-1-1z"></path><path id="Path" d="m45 54h-14c-.5522847 0-1 .4477153-1 1s.4477153 1 1 1h14c.5522847 0 1-.4477153 1-1s-.4477153-1-1-1z"></path><path id="Shape" d="m26 46h-6c-1.1045695 0-2 .8954305-2 2v6c0 1.1045695.8954305 2 2 2h6c1.1045695 0 2-.8954305 2-2v-6c0-1.1045695-.8954305-2-2-2zm-6 8v-6h6v6z" fill-rule="nonzero"></path></g></g></g></svg>